<?xml version="1.0" encoding="UTF-8" standalone="no"?>
<!-- Created with Inkscape (http://www.inkscape.org/) -->

<svg
   width="21.988129mm"
   height="24.399797mm"
   viewBox="0 0 21.988129 24.399797"
   version="1.1"
   id="svg1"
   xmlns="http://www.w3.org/2000/svg"
   xmlns:svg="http://www.w3.org/2000/svg">
  <defs
     id="defs1">
    <linearGradient
       id="swatch110">
      <stop
         style="stop-color:#000000;stop-opacity:1;"
         offset="0"
         id="stop110" />
    </linearGradient>
  </defs>
  <g
     id="layer1"
     transform="translate(-18.999998,-12.8)">
    <g
       id="g18"
       transform="translate(-40.005936)">
      <path
         id="use1"
         style="display:inline;fill:#d6a77a;fill-opacity:1;stroke-width:0.282843;stroke-dasharray:none"
         d="m 69.999862,21.80022 a 3.1999979,3.2 30 0 0 -1.599903,0.428397 3.2,3.1999979 0 0 0 -0.662492,0.509013 3.2,3.1999979 0 0 0 -0.275952,0.314193 3.1999979,3.2 30 0 0 -0.232544,0.348299 3.2,3.1999979 0 0 0 -0.185001,0.375171 3.1999979,3.2 30 0 0 -0.0894,0.261999 3.2,3.1999979 0 0 0 -0.04548,0.134359 3.1999979,3.2 30 0 0 0,5.17e-4 3.2,3.1999979 0 0 0 -0.08165,0.409794 3.1999979,3.2 30 0 0 -0.02739,0.418062 3.1999979,3.2 30 0 0 0.02997,0.431499 3.2,3.1999979 0 0 0 0.02584,0.129191 3.1999979,3.2 30 0 0 0.06305,0.297139 3.2,3.1999979 0 0 0 0.04754,0.140043 3.1999979,3.2 30 0 0 0.09612,0.265617 3.2,3.1999979 0 0 0 0.07803,0.15813 3.1999979,3.2 30 0 0 0.119889,0.225826 3.2,3.1999979 0 0 0 0.100252,0.149862 3.1999979,3.2 30 0 0 0.148828,0.205672 3.2,3.1999979 0 0 0 0.119373,0.136426 3.1999979,3.2 30 0 0 0.175183,0.181901 3.2,3.1999979 0 0 0 0.137459,0.120923 3.1999979,3.2 30 0 0 0.196371,0.153995 3.2,3.1999979 0 0 0 0.152445,0.101803 3.1999979,3.2 30 0 0 0.109554,0.07338 3.1999979,3.2 30 0 0 0.134359,0.06821 3.2,3.1999979 0 0 0 0.09198,0.04703 3.1999979,3.2 30 0 0 0.373621,0.152962 v 2.920752 a 3.2,3.2000003 0 0 0 -2.199866,3.039608 3.2,3.2000003 0 0 0 3.199805,3.199805 3.2,3.2000003 0 0 0 3.200321,-3.199805 3.2,3.2000003 0 0 0 -2.200382,-3.039608 v -2.920752 a 3.2,3.1999979 0 0 0 0.397391,-0.161747 3.1999979,3.2 30 0 0 0.116272,-0.06563 3.2,3.1999979 0 0 0 0.257349,-0.148312 3.1999979,3.2 30 0 0 0.122473,-0.0925 3.2,3.1999979 0 0 0 0.217558,-0.168982 3.1999979,3.2 30 0 0 0.02119,-0.01654 l 2.529562,1.460376 a 3.2000003,3.2 30 0 0 1.532723,3.425114 3.2000003,3.2 30 0 0 4.370792,-1.171505 3.2000003,3.2 30 0 0 -1.170988,-4.371309 3.2000003,3.2 30 0 0 -3.732588,0.386023 l -2.529045,-1.460376 a 3.2,3.1999979 0 0 0 0.05426,-0.397392 3.1999979,3.2 30 0 0 0.0062,-0.112654 3.2,3.1999979 0 0 0 0.0072,-0.144178 3.2,3.1999979 0 0 0 -0.0083,-0.128674 3.1999979,3.2 30 0 0 -0.0124,-0.186035 3.2,3.1999979 0 0 0 -0.03514,-0.246497 3.1999979,3.2 30 0 0 -0.03617,-0.181384 3.2,3.1999979 0 0 0 -0.06873,-0.238745 3.1999979,3.2 30 0 0 -0.05943,-0.174666 3.2,3.1999979 0 0 0 -0.10387,-0.231511 3.1999979,3.2 30 0 0 -0.07906,-0.160713 3.2,3.1999979 0 0 0 -0.133842,-0.213424 3.1999979,3.2 30 0 0 -0.101803,-0.152446 3.2,3.1999979 0 0 0 -0.172082,-0.204638 3.1999979,3.2 30 0 0 -0.10697,-0.12144 3.2,3.1999979 0 0 0 -0.224793,-0.202572 3.1999979,3.2 30 0 0 -0.0987,-0.0863 3.2,3.1999979 0 0 0 -0.312125,-0.21084 3.2,3.1999979 0 0 0 -0.422197,-0.216524 3.1999979,3.2 30 0 0 -1.224731,-0.243396 z" />
      <path
         id="path17"
         style="display:inline;fill:#2f3e46;fill-opacity:1;stroke-width:0.282843;stroke-dasharray:none"
         d="m 67.228758,14.400278 a 3.1999979,3.2 30 0 0 1.17121,4.371016 3.1999979,3.2 30 0 0 3.73231,-0.385337 l 2.529446,1.460376 a 3.2000003,3.2 30 0 0 1.532444,3.424943 3.2000003,3.2 30 0 0 4.371015,-1.171208 3.2000003,3.2 30 0 0 -1.170951,-4.371463 3.2000003,3.2 30 0 0 -3.73257,0.385782 l -2.529446,-1.460375 a 3.1999979,3.2 30 0 0 -1.532186,-3.425391 3.1999979,3.2 30 0 0 -4.371272,1.171657 z" />
      <path
         id="path18"
         style="display:inline;fill:#2f3e46;fill-opacity:1;stroke-width:0.282843;stroke-dasharray:none"
         d="m 62.205741,17.300018 a 3.2,3.1999979 0 0 0 -3.199805,3.199804 3.2,3.1999979 0 0 0 2.199866,3.039608 v 2.920752 a 3.2,3.2000003 0 0 0 -2.199866,3.039608 3.2,3.2000003 0 0 0 3.199805,3.199805 3.2,3.2000003 0 0 0 3.200321,-3.199805 3.2,3.2000003 0 0 0 -2.200382,-3.039608 V 23.53943 a 3.2,3.1999979 0 0 0 2.200382,-3.039608 3.2,3.1999979 0 0 0 -3.200321,-3.199804 z" />
    </g>
  </g>
</svg>
