<?xml version="1.0" encoding="UTF-8" standalone="no"?>
<!-- Created with Inkscape (http://www.inkscape.org/) -->

<svg
   width="79.370453mm"
   height="25.629589mm"
   viewBox="0 0 79.370453 25.629589"
   version="1.1"
   id="svg1"
   xmlns="http://www.w3.org/2000/svg"
   xmlns:svg="http://www.w3.org/2000/svg">
  <defs
     id="defs1">
    <linearGradient
       id="swatch110">
      <stop
         style="stop-color:#000000;stop-opacity:1;"
         offset="0"
         id="stop110" />
    </linearGradient>
  </defs>
  <g
     id="layer1"
     transform="translate(-69.656045,-201.05143)">
    <rect
       style="display:inline;fill:#d6a77a;fill-opacity:1;stroke-width:0.282843;stroke-dasharray:none"
       id="rect11-7-4-8-1-00-7"
       width="1.9999967"
       height="11.999999"
       x="-82.186363"
       y="213.99509"
       transform="scale(-1,1)" />
    <rect
       style="display:inline;fill:#d6a77a;fill-opacity:1;stroke-width:0.282843;stroke-dasharray:none"
       id="rect11-7-3-0-4-7-3-9"
       width="1.9999967"
       height="11.999999"
       x="144.78365"
       y="176.18591"
       transform="matrix(-0.49722656,0.86762074,0.86762074,0.49722656,0,0)" />
    <rect
       style="display:inline;fill:#2f3e46;fill-opacity:1;stroke-width:0.282843;stroke-dasharray:none"
       id="rect11-7-3-7-5-5-4-9-4"
       width="1.9999967"
       height="11.999999"
       x="135.94511"
       y="171.96391"
       transform="matrix(-0.49722656,0.86762074,0.86762074,0.49722656,0,0)" />
    <rect
       style="display:inline;fill:#2f3e46;fill-opacity:1;stroke-width:0.282843;stroke-dasharray:none"
       id="rect11-7-1-7-8-5-5-7"
       width="1.9999967"
       height="11.999999"
       x="-73.872688"
       y="208.40044"
       transform="scale(-1,1)" />
    <ellipse
       style="fill:#d6a77a;fill-opacity:1;stroke-width:0.423334"
       id="path7-5-8-8-1-3-0"
       cx="-88.923134"
       cy="218.70036"
       rx="3.2"
       ry="3.2000003"
       transform="scale(-1,1)" />
    <ellipse
       style="fill:#2f3e46;fill-opacity:1;stroke-width:0.423334"
       id="path7-9-8-4-1-1"
       ry="3.2000003"
       rx="3.2"
       cy="209.3033"
       cx="-89.851524"
       transform="scale(-1,1)" />
    <ellipse
       style="fill:#d6a77a;fill-opacity:1;stroke-width:0.423334"
       id="path7-7-3-4-6-1-1"
       cx="-81.196068"
       cy="223.48102"
       rx="3.2"
       ry="3.2000003"
       transform="scale(-1,1)" />
    <ellipse
       style="fill:#2f3e46;fill-opacity:1;stroke-width:0.423334"
       id="path7-8-7-5-0-2-5"
       cx="-72.889397"
       cy="218.17953"
       rx="3.2"
       ry="3.2000003"
       transform="scale(-1,1)" />
    <ellipse
       style="fill:#2f3e46;fill-opacity:1;stroke-width:0.423334"
       id="path7-3-4-7-3-6-2"
       cx="-72.856041"
       cy="208.91322"
       rx="3.2"
       ry="3.2000003"
       transform="scale(-1,1)" />
    <ellipse
       style="fill:#2f3e46;fill-opacity:1;stroke-width:0.423335"
       id="path7-1-80-9-2-9-2"
       cx="-81.597771"
       cy="204.25142"
       rx="3.2"
       ry="3.2000003"
       transform="scale(-1,1)" />
    <ellipse
       style="fill:#d6a77a;fill-opacity:1;stroke-width:0.423333"
       id="path7-38-0-8-2-1-2"
       cx="-81.311241"
       cy="214.20117"
       rx="3.2"
       ry="3.1999979"
       transform="scale(-1,1)" />
    <path
       d="m 106.46385,216.37276 q 0,0.90334 -0.34181,1.59509 -0.3418,0.69174 -0.91961,1.13934 -0.68361,0.53712 -1.50557,0.76499 -0.81381,0.22787 -2.07523,0.22787 H 97.324666 V 207.9823 h 3.588934 q 1.32653,0 1.98572,0.0976 0.65919,0.0977 1.26142,0.40691 0.66733,0.34995 0.96844,0.90334 0.30112,0.54526 0.30112,1.31025 0,0.86265 -0.43947,1.47301 -0.43946,0.60223 -1.17189,0.96844 v 0.0651 q 1.22886,0.25228 1.93688,1.08238 0.70803,0.82196 0.70803,2.08337 z m -2.71002,-5.46072 q 0,-0.43946 -0.14649,-0.74057 -0.14648,-0.30111 -0.47201,-0.48829 -0.3825,-0.21973 -0.92775,-0.26856 -0.54526,-0.057 -1.35094,-0.057 h -1.920614 v 3.49942 h 2.083374 q 0.75685,0 1.20445,-0.0733 0.4476,-0.0814 0.8301,-0.32552 0.38249,-0.24415 0.53712,-0.62664 0.16276,-0.39064 0.16276,-0.91962 z m 1.03355,5.52583 q 0,-0.73244 -0.21973,-1.16376 -0.21973,-0.43132 -0.79754,-0.73244 -0.39064,-0.20345 -0.95217,-0.26042 -0.5534,-0.0651 -1.35094,-0.0651 h -2.530974 v 4.50855 h 2.132204 q 1.05796,0 1.73343,-0.1058 0.67547,-0.11393 1.1068,-0.40691 0.45573,-0.31739 0.66733,-0.7243 0.21159,-0.4069 0.21159,-1.04982 z m 5.48514,-6.95001 h -1.7253 v -1.58695 h 1.7253 z m -0.0977,10.61219 h -1.52998 v -9.09035 h 1.52998 z m 10.77495,-4.5411 q 0,2.22172 -1.13934,3.50755 -1.13935,1.28584 -3.05182,1.28584 -1.92875,0 -3.0681,-1.28584 -1.13121,-1.28583 -1.13121,-3.50755 0,-2.22173 1.13121,-3.50756 1.13935,-1.29397 3.0681,-1.29397 1.91247,0 3.05182,1.29397 1.13934,1.28583 1.13934,3.50756 z m -1.57881,0 q 0,-1.76599 -0.69174,-2.6205 -0.69175,-0.86265 -1.92061,-0.86265 -1.24514,0 -1.93689,0.86265 -0.68361,0.85451 -0.68361,2.6205 0,1.70901 0.69175,2.59608 0.69174,0.87892 1.92875,0.87892 1.22072,0 1.91247,-0.87079 0.69988,-0.87892 0.69988,-2.60421 z m 14.86033,4.5411 h -1.61136 v -10.44129 l -3.36921,7.10464 h -0.96031 l -3.34479,-7.10464 v 10.44129 h -1.50557 V 207.9823 h 2.19731 l 3.23086,6.74655 3.12507,-6.74655 h 2.238 z m 10.88075,-4.5411 q 0,2.22172 -1.13935,3.50755 -1.13934,1.28584 -3.05182,1.28584 -1.92875,0 -3.06809,-1.28584 -1.13121,-1.28583 -1.13121,-3.50755 0,-2.22173 1.13121,-3.50756 1.13934,-1.29397 3.06809,-1.29397 1.91248,0 3.05182,1.29397 1.13935,1.28583 1.13935,3.50756 z m -1.57881,0 q 0,-1.76599 -0.69175,-2.6205 -0.69174,-0.86265 -1.92061,-0.86265 -1.24514,0 -1.93688,0.86265 -0.68361,0.85451 -0.68361,2.6205 0,1.70901 0.69174,2.59608 0.69175,0.87892 1.92875,0.87892 1.22073,0 1.91248,-0.87079 0.69988,-0.87892 0.69988,-2.60421 z m 5.49327,4.5411 h -1.52998 v -12.66301 h 1.52998 z"
       id="text1"
       style="font-size:16.667px;fill:#2f3e46;stroke-width:2.08401"
       aria-label="BioMol" />
  </g>
</svg>
