<?xml version="1.0" encoding="UTF-8" standalone="no"?>
<!-- Created with Inkscape (http://www.inkscape.org/) -->

<svg
   width="79.370468mm"
   height="25.62962mm"
   viewBox="0 0 79.370468 25.62962"
   version="1.1"
   id="svg1"
   xmlns="http://www.w3.org/2000/svg"
   xmlns:svg="http://www.w3.org/2000/svg">
  <defs
     id="defs1">
    <linearGradient
       id="swatch110">
      <stop
         style="stop-color:#000000;stop-opacity:1;"
         offset="0"
         id="stop110" />
    </linearGradient>
  </defs>
  <g
     id="layer1"
     transform="translate(-11.212464,-263.71349)">
    <rect
       style="display:inline;fill:#f3d29c;fill-opacity:1;stroke-width:0.282843;stroke-dasharray:none"
       id="rect11-7-4-8-1-00-7-8"
       width="1.9999967"
       height="11.999999"
       x="-23.742786"
       y="276.6572"
       transform="scale(-1,1)" />
    <rect
       style="display:inline;fill:#f3d29c;fill-opacity:1;stroke-width:0.282843;stroke-dasharray:none"
       id="rect11-7-3-0-4-7-3-9-0"
       width="1.9999967"
       height="11.999999"
       x="228.21027"
       y="156.63632"
       transform="matrix(-0.49722656,0.86762074,0.86762074,0.49722656,0,0)" />
    <rect
       style="display:inline;fill:#e8ebed;fill-opacity:1;stroke-width:0.282843;stroke-dasharray:none"
       id="rect11-7-3-7-5-5-4-9-4-2"
       width="1.9999967"
       height="11.999999"
       x="219.37173"
       y="152.41432"
       transform="matrix(-0.49722656,0.86762074,0.86762074,0.49722656,0,0)" />
    <rect
       style="display:inline;fill:#e8ebed;fill-opacity:1;stroke-width:0.282843;stroke-dasharray:none"
       id="rect11-7-1-7-8-5-5-7-4"
       width="1.9999967"
       height="11.999999"
       x="-15.429111"
       y="271.06253"
       transform="scale(-1,1)" />
    <ellipse
       style="fill:#f3d29c;fill-opacity:1;stroke-width:0.423334"
       id="path7-5-8-8-1-3-0-8"
       cx="-30.479557"
       cy="281.36246"
       rx="3.2"
       ry="3.2000003"
       transform="scale(-1,1)" />
    <ellipse
       style="fill:#e8ebed;fill-opacity:1;stroke-width:0.423334"
       id="path7-9-8-4-1-1-3"
       ry="3.2000003"
       rx="3.2"
       cy="271.96539"
       cx="-31.407948"
       transform="scale(-1,1)" />
    <ellipse
       style="fill:#f3d29c;fill-opacity:1;stroke-width:0.423334"
       id="path7-7-3-4-6-1-1-9"
       cx="-22.752491"
       cy="286.14313"
       rx="3.2"
       ry="3.2000003"
       transform="scale(-1,1)" />
    <ellipse
       style="fill:#e8ebed;fill-opacity:1;stroke-width:0.423334"
       id="path7-8-7-5-0-2-5-0"
       cx="-14.44582"
       cy="280.84164"
       rx="3.2"
       ry="3.2000003"
       transform="scale(-1,1)" />
    <ellipse
       style="fill:#e8ebed;fill-opacity:1;stroke-width:0.423334"
       id="path7-3-4-7-3-6-2-5"
       cx="-14.412464"
       cy="271.57532"
       rx="3.2"
       ry="3.2000003"
       transform="scale(-1,1)" />
    <ellipse
       style="fill:#e8ebed;fill-opacity:1;stroke-width:0.423335"
       id="path7-1-80-9-2-9-2-2"
       cx="-23.154194"
       cy="266.91351"
       rx="3.2"
       ry="3.2000003"
       transform="scale(-1,1)" />
    <ellipse
       style="fill:#f3d29c;fill-opacity:1;stroke-width:0.423333"
       id="path7-38-0-8-2-1-2-2"
       cx="-22.867664"
       cy="276.86328"
       rx="3.2"
       ry="3.1999979"
       transform="scale(-1,1)" />
    <path
       d="m 48.020279,279.03485 c 0,0.60223 -0.113937,1.13392 -0.34181,1.59509 -0.227867,0.46116 -0.534403,0.84094 -0.91961,1.13934 -0.45574,0.35808 -0.957597,0.61308 -1.50557,0.76499 -0.54254,0.15191 -1.234283,0.22787 -2.07523,0.22787 h -4.296968 v -12.11775 h 3.588938 c 0.884353,0 1.54626,0.0325 1.98572,0.0976 0.43946,0.0651 0.859933,0.20077 1.26142,0.40691 0.444887,0.2333 0.7677,0.53441 0.96844,0.90334 0.200747,0.36351 0.30112,0.80026 0.30112,1.31025 0,0.5751 -0.14649,1.0661 -0.43947,1.47301 -0.292973,0.40149 -0.683603,0.7243 -1.17189,0.96844 v 0.0651 c 0.81924,0.16819 1.464867,0.52898 1.93688,1.08238 0.47202,0.54797 0.70803,1.24243 0.70803,2.08337 z m -2.71002,-5.46072 c 0,-0.29297 -0.04883,-0.53983 -0.14649,-0.74057 -0.09765,-0.20074 -0.25499,-0.3635 -0.47201,-0.48829 -0.255,-0.14649 -0.56425,-0.23601 -0.92775,-0.26856 -0.363507,-0.038 -0.81382,-0.057 -1.35094,-0.057 h -1.920618 v 3.49942 h 2.083378 c 0.504567,0 0.90605,-0.0244 1.20445,-0.0733 0.2984,-0.0543 0.5751,-0.16277 0.8301,-0.32552 0.254993,-0.16277 0.434033,-0.37165 0.53712,-0.62664 0.108507,-0.26043 0.16276,-0.56697 0.16276,-0.91962 z m 1.03355,5.52583 c 0,-0.48829 -0.07324,-0.87621 -0.21973,-1.16376 -0.146487,-0.28755 -0.412333,-0.53169 -0.79754,-0.73244 -0.260427,-0.13563 -0.577817,-0.22244 -0.95217,-0.26042 -0.368933,-0.0434 -0.819247,-0.0651 -1.35094,-0.0651 h -2.530978 v 4.50855 h 2.132208 c 0.705307,0 1.283117,-0.0353 1.73343,-0.1058 0.450313,-0.0759 0.819247,-0.21159 1.1068,-0.40691 0.30382,-0.21159 0.526263,-0.45303 0.66733,-0.7243 0.14106,-0.27127 0.21159,-0.62121 0.21159,-1.04982 z m 5.48514,-6.95001 h -1.7253 V 270.563 h 1.7253 z m -0.0977,10.61219 h -1.52998 v -9.09035 h 1.52998 z m 10.77495,-4.5411 c 0,1.48115 -0.37978,2.65033 -1.13934,3.50755 -0.759567,0.85723 -1.77684,1.28584 -3.05182,1.28584 -1.285833,0 -2.308533,-0.42861 -3.0681,-1.28584 -0.75414,-0.85722 -1.13121,-2.0264 -1.13121,-3.50755 0,-1.48115 0.37707,-2.65034 1.13121,-3.50756 0.759567,-0.86265 1.782267,-1.29397 3.0681,-1.29397 1.27498,0 2.292253,0.43132 3.05182,1.29397 0.75956,0.85722 1.13934,2.02641 1.13934,3.50756 z m -1.57881,0 c 0,-1.17733 -0.23058,-2.05083 -0.69174,-2.6205 -0.461167,-0.5751 -1.10137,-0.86265 -1.92061,-0.86265 -0.830093,0 -1.475723,0.28755 -1.93689,0.86265 -0.45574,0.56967 -0.68361,1.44317 -0.68361,2.6205 0,1.13934 0.230583,2.0047 0.69175,2.59608 0.46116,0.58595 1.104077,0.87892 1.92875,0.87892 0.813813,0 1.451303,-0.29026 1.91247,-0.87079 0.466587,-0.58595 0.69988,-1.45402 0.69988,-2.60421 z m 14.86033,4.5411 h -1.61136 v -10.44129 l -3.36921,7.10464 h -0.96031 l -3.34479,-7.10464 v 10.44129 h -1.50557 v -12.11775 h 2.19731 l 3.23086,6.74655 3.12507,-6.74655 h 2.238 z m 10.88075,-4.5411 c 0,1.48115 -0.379783,2.65033 -1.13935,3.50755 -0.75956,0.85723 -1.776833,1.28584 -3.05182,1.28584 -1.285833,0 -2.30853,-0.42861 -3.06809,-1.28584 -0.75414,-0.85722 -1.13121,-2.0264 -1.13121,-3.50755 0,-1.48115 0.37707,-2.65034 1.13121,-3.50756 0.75956,-0.86265 1.782257,-1.29397 3.06809,-1.29397 1.274987,0 2.29226,0.43132 3.05182,1.29397 0.759567,0.85722 1.13935,2.02641 1.13935,3.50756 z m -1.57881,0 c 0,-1.17733 -0.230583,-2.05083 -0.69175,-2.6205 -0.46116,-0.5751 -1.101363,-0.86265 -1.92061,-0.86265 -0.830093,0 -1.47572,0.28755 -1.93688,0.86265 -0.45574,0.56967 -0.68361,1.44317 -0.68361,2.6205 0,1.13934 0.23058,2.0047 0.69174,2.59608 0.461167,0.58595 1.104083,0.87892 1.92875,0.87892 0.81382,0 1.451313,-0.29026 1.91248,-0.87079 0.466587,-0.58595 0.69988,-1.45402 0.69988,-2.60421 z m 5.49327,4.5411 h -1.52998 v -12.66301 h 1.52998 z"
       id="text1-7"
       style="font-size:16.667px;fill:#e8ebed;fill-opacity:1;stroke-width:2.08401"
       aria-label="BioMol" />
  </g>
</svg>
